<?xml version="1.0" encoding="UTF-8"?>
<svg id="Aperture" xmlns="http://www.w3.org/2000/svg" viewBox="0 0 1070.6 1070.6">
  <path d="m613.42,430.27c0,19.01-4.48,33.51-13.44,43.49-8.97,9.99-21.91,14.98-38.83,14.98h-12.1v-105.53c3.45-.28,8.62-.55,15.53-.82,6.9-.27,13.1.38,19.11,1.94,6.01,1.56,11.22,4.17,15.62,7.84,4.39,3.67,7.84,8.59,10.35,14.77,2.5,6.18,3.76,13.95,3.76,23.33Z"/>
  <path d="m633.21,564.73c0,13.17-1.81,24.14-5.43,32.9-3.61,8.76-9.46,15.38-17.53,19.87-8.07,4.48-19.4,6.72-33.98,6.72-10.02,0-23.2-2.69-27.22-11.69v-105.86h25.88c14.47,0,24.53,2.29,32.42,7.13,13.34,8.18,16.5,12.94,20.45,21.5,3.95,8.56,5.41,16.26,5.41,29.43Z"/>
  <path d="m535.3,224.85l-268.86,155.22v310.46l268.86,155.22,268.86-155.22v-310.46l-268.86-155.22Zm121.37,384.09c-6.73,11.68-16.17,20.14-28.3,25.36-12.14,5.23-26.83,7.85-44.09,7.85h-86v-9.99c6.9-2.17,11.52-4.58,13.86-7.23,2.34-2.65,3.87-6.42,4.59-11.31.73-4.89,1.09-12.35,1.09-22.41v-176.22c0-9.37-.28-16.2-.84-20.48-.55-4.28-1.47-7.6-2.75-9.98-1.28-2.38-2.98-4.28-5.09-5.71-1.65-1.1-3.73-2.34-7.51-2.54-4.19.2-5.63,1.13-7.24,2.24-2.17,1.5-3.9,3.36-5.18,5.6-1.28,2.24-2.23,5.6-2.84,10.09-.61,4.48-.91,11.41-.91,20.78v213.3c0,18.34-1.76,33.21-5.26,44.62-3.51,11.41-10.61,19.96-17.71,28.93-6.95,8.78-18.03,20.9-34.6,32.46-.02-.05-4.05-5.31-4.7-7.64-.34-1.2-1.01-8.01-1.02-8.04,0,0,15.16-16.3,18.54-21.55,3.78-5.87,9.31-17.51,10.93-24.57,1.61-7.06,2.42-16.57,2.42-28.52v-228.99c0-11.82-.47-19.9-1.42-24.25-.95-4.34-2.5-7.67-4.67-9.98-2.17-2.31-6.66-4.55-13.45-6.72v-9.99h137.98c17.71,0,31.93,2.32,42.67,6.93,10.74,4.62,18.73,11.44,23.96,20.48,5.24,9.03,7.85,20.67,7.85,34.94,0,11.81-1.86,22.07-5.59,30.76-3.73,8.69-8.6,15.89-14.61,21.6-6.01,5.7-13.75,11-23.21,15.89,9.13-3.23,39.19,5.2,56.14,31.7,5.73,8.95,10.35,23.45,10.14,37.63-.28,18.47-6.44,33.28-13.18,44.96Z"/>
  <g>
    <g id="_Radial_Repeat_" data-name="&amp;lt;Radial Repeat&amp;gt;">
      <polygon points="774.57 641.57 804.16 658.94 804.16 998.19 774.57 980.82 774.57 641.57"/>
    </g>
    <g id="_Radial_Repeat_-2" data-name="&amp;lt;Radial Repeat&amp;gt;">
      <polygon points="562.9 795.65 562.66 829.96 268.86 999.59 269.1 965.28 562.9 795.65"/>
    </g>
    <g id="_Radial_Repeat_-3" data-name="&amp;lt;Radial Repeat&amp;gt;">
      <polygon points="323.63 689.38 293.8 706.33 0 536.7 29.83 519.76 323.63 689.38"/>
    </g>
    <g id="_Radial_Repeat_-4" data-name="&amp;lt;Radial Repeat&amp;gt;">
      <polygon points="296.03 429.03 266.44 411.67 266.44 72.42 296.03 89.78 296.03 429.03"/>
    </g>
    <g id="_Radial_Repeat_-5" data-name="&amp;lt;Radial Repeat&amp;gt;">
      <polygon points="507.7 274.95 507.94 240.64 801.74 71.02 801.5 105.32 507.7 274.95"/>
    </g>
    <g id="_Radial_Repeat_-6" data-name="&amp;lt;Radial Repeat&amp;gt;">
      <polygon points="746.97 381.22 776.8 364.28 1070.6 533.9 1040.77 550.85 746.97 381.22"/>
    </g>
  </g>
</svg>